# xmcd
#
# Track frame offsets:
#	150
#	15000
#	38707
#	57947
#	75632
#	90242
#	109132
#	110067
#	127970
#	148947
#	168075
#	184875
#	207615
#	225480
#
# Disc length: 3157 seconds
#
# Revision: 1
# Processed by: cddbd v1.5.1PL0 Copyright (c) Steve Scherf et al.
# Submitted via: CDex 1.50Beta5
#
DISCID=af0c530e
DTITLE=東京スカパラダイスオーケストラ - Stompin’ On DOWN BEAT ALLEY
DYEAR=2002
DGENRE=Rock
TTITLE0=(WE KNOW IT’S)ALL OR NOTHING
TTITLE1=めくれたオレンジ
TTITLE2=DOWN BEAT STOMP
TTITLE3=SKULL COLLECTOR
TTITLE4=CALL FROM RIO
TTITLE5=灰の城
TTITLE6=SKAHOLIC GENERATION
TTITLE7=カナリヤ鳴く空
TTITLE8=SOUL GROWL
TTITLE9=暗夜行路
TTITLE10=ONE EYED COBRA
TTITLE11=美しく燃える森
TTITLE12=BOGGIE’S NOT DEAD
TTITLE13=AND THE ANGELS SING〜そして天使は歌う〜
EXTD=
EXTT0=
EXTT1=
EXTT2=
EXTT3=
EXTT4=
EXTT5=
EXTT6=
EXTT7=
EXTT8=
EXTT9=
EXTT10=
EXTT11=
EXTT12=
EXTT13=
PLAYORDER=
